<svg height="32" width="32" viewBox="0 0 100 100" xmlns="http://www.w3.org/2000/svg"><title/><circle cx="50" cy="50" fill="#e6e6e6" r="49.5"/><path d="M75.34231,65.875,61.57,86.16094a1.99709,1.99709,0,0,1-3.64938-1.12175V50.981a1.99709,1.99709,0,0,1,3.40925-1.41216L75.10218,63.34107A1.99709,1.99709,0,0,1,75.34231,65.875Z" fill="#10556b"/><rect fill="#10556b" height="47.04142" rx="6.95461" ry="6.95461" width="68" x="16" y="25.96"/><path d="M78.18169,70.00142H21.81831A5.81831,5.81831,0,0,1,16,64.18312V29.91461A6.95461,6.95461,0,0,1,22.95461,22.96H77.04539A6.95461,6.95461,0,0,1,84,29.91461v34.2685A5.81831,5.81831,0,0,1,78.18169,70.00142Z" fill="#2b687f"/><path d="M68.73493,41.97423l1.68335,3.41084,3.76408.547a1.143,1.143,0,0,1,.63349,1.94969l-2.72372,2.655.643,3.74887a1.143,1.143,0,0,1-1.6585,1.205l-3.3667-1.77-3.3667,1.77a1.143,1.143,0,0,1-1.6585-1.205l.643-3.74887-2.72372-2.655a1.143,1.143,0,0,1,.63349-1.94969l3.76408-.547,1.68335-3.41084A1.143,1.143,0,0,1,68.73493,41.97423Z" fill="#005670" stroke="#005670" stroke-miterlimit="10"/><path d="M51.025,41.97423l1.68335,3.41084,3.76408.547a1.143,1.143,0,0,1,.63349,1.94969l-2.72372,2.655.643,3.74887a1.143,1.143,0,0,1-1.6585,1.205L50,53.72055l-3.3667,1.77a1.143,1.143,0,0,1-1.6585-1.205l.643-3.74887-2.72372-2.655a1.143,1.143,0,0,1,.63349-1.94969l3.76408-.547L48.975,41.97423A1.143,1.143,0,0,1,51.025,41.97423Z" fill="#005670" stroke="#005670" stroke-miterlimit="10"/><path d="M33.3151,41.97423l1.68335,3.41084,3.76408.547a1.143,1.143,0,0,1,.63349,1.94969l-2.72372,2.655.643,3.74887a1.143,1.143,0,0,1-1.6585,1.205l-3.3667-1.77-3.3667,1.77a1.143,1.143,0,0,1-1.6585-1.205l.643-3.74887-2.72372-2.655a1.143,1.143,0,0,1,.63349-1.94969l3.76408-.547,1.68335-3.41084A1.143,1.143,0,0,1,33.3151,41.97423Z" fill="#005670" stroke="#005670" stroke-miterlimit="10"/><path d="M68.73493,39.97423l1.68335,3.41084,3.76408.547a1.143,1.143,0,0,1,.63349,1.94969l-2.72372,2.655.643,3.74887a1.143,1.143,0,0,1-1.6585,1.205l-3.3667-1.77-3.3667,1.77a1.143,1.143,0,0,1-1.6585-1.205l.643-3.74887-2.72372-2.655a1.143,1.143,0,0,1,.63349-1.94969l3.76408-.547,1.68335-3.41084A1.143,1.143,0,0,1,68.73493,39.97423Z" fill="#fff"/><path d="M51.025,39.97423l1.68335,3.41084,3.76408.547a1.143,1.143,0,0,1,.63349,1.94969l-2.72372,2.655.643,3.74887a1.143,1.143,0,0,1-1.6585,1.205L50,51.72055l-3.3667,1.77a1.143,1.143,0,0,1-1.6585-1.205l.643-3.74887-2.72372-2.655a1.143,1.143,0,0,1,.63349-1.94969l3.76408-.547L48.975,39.97423A1.143,1.143,0,0,1,51.025,39.97423Z" fill="#fff"/><path d="M33.3151,39.97423l1.68335,3.41084,3.76408.547a1.143,1.143,0,0,1,.63349,1.94969l-2.72372,2.655.643,3.74887a1.143,1.143,0,0,1-1.6585,1.205l-3.3667-1.77-3.3667,1.77a1.143,1.143,0,0,1-1.6585-1.205l.643-3.74887-2.72372-2.655a1.143,1.143,0,0,1,.63349-1.94969l3.76408-.547,1.68335-3.41084A1.143,1.143,0,0,1,33.3151,39.97423Z" fill="#fff"/></svg>